<?xml version="1.0" encoding="UTF-8"?>
<svg xmlns="http://www.w3.org/2000/svg"
     viewBox="0 0 590 120" width="590" height="120">
  

  <!-- ── Symbol ── (110×110 placed at 5,5) -->
  <g transform="translate(5,5)">
    <g fill="#0D0F10">
      <rect x="11"  y="10"  width="8"  height="90"/>
      <rect x="11"  y="44"  width="84" height="8"/>
      <rect x="51"  y="48"  width="8"  height="52"/>
      <rect x="11"  y="96"  width="48" height="8"/>
      <circle cx="15"  cy="10"  r="9"/>
      <circle cx="15"  cy="48"  r="9"/>
      <circle cx="95"  cy="48"  r="9"/>
      <circle cx="55"  cy="48"  r="9"/>
      <circle cx="15"  cy="100" r="9"/>
      <circle cx="55"  cy="100" r="9"/>
    </g>
  </g>

  <!-- ── Wordmark (text-as-paths, no font dependency) ── -->
  <path d="M164.3 6.9L164.3 46.8L180 46.8L180 56L152.3 56L152.3 6.9L164.3 6.9M223.5 56L220.5 47.3L202.2 47.3L199.2 56L186.7 56L204.5 6.9L218.3 6.9L236.1 56L223.5 56M205.3 38.1L217.4 38.1L211.3 20.1L205.3 38.1M243.1 6.9L281.1 6.9L281.1 16.4L268 16.4L268 56L256.1 56L256.1 16.4L243.1 16.4L243.1 6.9M321.4 16.4L303.3 16.4L303.3 26.4L319.3 26.4L319.3 35.6L303.3 35.6L303.3 46.4L321.4 46.4L321.4 56L291.3 56L291.3 6.9L321.4 6.9L321.4 16.4M331.3 31.4Q331.3 24.1 334.5 18.4Q337.6 12.7 343.3 9.5Q348.9 6.3 356 6.3Q364.8 6.3 371 10.9Q377.3 15.5 379.3 23.5L366.2 23.5Q364.7 20.4 362 18.8Q359.3 17.2 355.9 17.2Q350.4 17.2 346.9 21.1Q343.5 24.9 343.5 31.4Q343.5 37.8 346.9 41.6Q350.4 45.5 355.9 45.5Q359.3 45.5 362 43.9Q364.7 42.3 366.2 39.2L379.3 39.2Q377.3 47.2 371 51.8Q364.8 56.4 356 56.4Q348.9 56.4 343.3 53.2Q337.6 50 334.5 44.3Q331.3 38.6 331.3 31.4M421.5 6.9L433.5 6.9L433.5 56L421.5 56L421.5 35.8L402.9 35.8L402.9 56L390.9 56L390.9 6.9L402.9 6.9L402.9 26.1L421.5 26.1" fill="#0D0F10"/>
  <path d="M170.1 114.5Q164.7 114.5 160.5 112.7Q156.2 111 153.6 107.6Q151.1 104.1 150.9 99.3L163.7 99.3Q164 102 165.6 103.5Q167.2 104.9 169.8 104.9Q172.4 104.9 174 103.7Q175.5 102.5 175.5 100.3Q175.5 98.5 174.3 97.3Q173.1 96.1 171.3 95.3Q169.5 94.5 166.2 93.6Q161.4 92.1 158.4 90.6Q155.4 89.2 153.3 86.3Q151.1 83.4 151.1 78.8Q151.1 71.9 156.1 68Q161 64.2 169 64.2Q177.1 64.2 182.1 68Q187.1 71.9 187.4 78.9L174.5 78.9Q174.3 76.5 172.7 75.1Q171.1 73.8 168.6 73.8Q166.4 73.8 165.1 74.9Q163.8 76.1 163.8 78.2Q163.8 80.6 166 81.9Q168.2 83.3 173 84.8Q177.8 86.4 180.7 87.9Q183.7 89.4 185.9 92.2Q188 95 188 99.4Q188 103.6 185.9 107Q183.8 110.4 179.7 112.5Q175.7 114.5 170.1 114.5M222.8 114.5Q215.9 114.5 210.1 111.3Q204.3 108 201 102.3Q197.6 96.5 197.6 89.3Q197.6 82.1 201 76.3Q204.3 70.6 210.1 67.4Q215.9 64.2 222.8 64.2Q229.8 64.2 235.5 67.4Q241.3 70.6 244.6 76.3Q248 82.1 248 89.3Q248 96.5 244.6 102.3Q241.2 108 235.5 111.3Q229.8 114.5 222.8 114.5M222.8 103.6Q228.7 103.6 232.2 99.7Q235.8 95.7 235.8 89.3Q235.8 82.8 232.2 78.9Q228.7 75 222.8 75Q216.9 75 213.3 78.9Q209.8 82.7 209.8 89.3Q209.8 95.8 213.3 99.7Q216.9 103.6 222.8 103.6M270.8 64.9L270.8 104.8L286.5 104.8L286.5 114L258.8 114L258.8 64.9L270.8 64.9M296.2 64.9L308.2 64.9L308.2 94.3Q308.2 98.7 310.3 101Q312.5 103.4 316.7 103.4Q320.9 103.4 323.1 101Q325.4 98.7 325.4 94.3L325.4 64.9L337.4 64.9L337.4 94.2Q337.4 100.8 334.6 105.3Q331.8 109.9 327 112.2Q322.3 114.5 316.5 114.5Q310.7 114.5 306.1 112.2Q301.5 109.9 298.9 105.4Q296.2 100.8 296.2 94.2L296.2 64.9M347.3 64.9L385.3 64.9L385.3 74.4L372.3 74.4L372.3 114L360.3 114L360.3 74.4L347.3 74.4L347.3 64.9M395.5 64.9L407.5 64.9L407.5 114L395.5 114L395.5 64.9M443.6 114.5Q436.7 114.5 430.9 111.3Q425.1 108 421.7 102.3Q418.3 96.5 418.3 89.3Q418.3 82.1 421.7 76.3Q425.1 70.6 430.9 67.4Q436.7 64.2 443.6 64.2Q450.5 64.2 456.3 67.4Q462.1 70.6 465.4 76.3Q468.7 82.1 468.7 89.3Q468.7 96.5 465.4 102.3Q462 108 456.3 111.3Q450.5 114.5 443.6 114.5M443.6 103.6Q449.5 103.6 453 99.7Q456.6 95.7 456.6 89.3Q456.6 82.8 453 78.9Q449.5 75 443.6 75Q437.7 75 434.1 78.9Q430.6 82.7 430.6 89.3Q430.6 95.8 434.1 99.7Q437.7 103.6 443.6 103.6M523.5 64.9L523.5 114L511.6 114L491.6 83.7L491.6 114L479.6 114L479.6 64.9L491.6 64.9L511.6 95.3L511.6 64.9L523.5 64.9M554.2 114.5Q548.8 114.5 544.6 112.7Q540.3 111 537.7 107.6Q535.2 104.1 535 99.3L547.8 99.3Q548.1 102 549.7 103.5Q551.3 104.9 553.9 104.9Q556.5 104.9 558.1 103.7Q559.6 102.5 559.6 100.3Q559.6 98.5 558.4 97.3Q557.2 96.1 555.4 95.3Q553.6 94.5 550.3 93.6Q545.5 92.1 542.5 90.6Q539.5 89.2 537.3 86.3Q535.2 83.4 535.2 78.8Q535.2 71.9 540.1 68Q545.1 64.2 553.1 64.2Q561.2 64.2 566.2 68Q571.2 71.9 571.5 78.9L558.6 78.9Q558.4 76.5 556.8 75.1Q555.2 73.8 552.7 73.8Q550.5 73.8 549.2 74.9Q547.8 76.1 547.8 78.2Q547.8 80.6 550.1 81.9Q552.3 83.3 557.1 84.8Q561.8 86.4 564.8 87.9Q567.8 89.4 570 92.2Q572.1 95 572.1 99.4Q572.1 103.6 570 107Q567.9 110.4 563.8 112.5Q559.7 114.5 554.2 114.5" fill="#0D0F10"/>
</svg>