<svg viewBox="0 0 1600 900" xmlns="http://www.w3.org/2000/svg">
  <rect width="1600" height="900" fill="#09090B"/>
  <g stroke="#1C1C21" stroke-width="1">
    <path d="M0 225H1600M0 450H1600M0 675H1600M400 0V900M800 0V900M1200 0V900"/>
  </g>
  <!-- phone -->
  <g transform="translate(1180,450)">
    <rect x="-160" y="-330" width="320" height="660" rx="36" fill="#09090B" stroke="#3F3F46" stroke-width="5"/>
    <rect x="-60" y="-305" width="120" height="14" rx="7" fill="#3F3F46"/>
    <!-- bars up -->
    <rect x="-110" y="60" width="48" height="120" fill="#3F3F46"/>
    <rect x="-40" y="0" width="48" height="180" fill="#71717A"/>
    <rect x="30" y="-70" width="48" height="250" fill="#DFE104"/>
    <path d="M-110 20L-16 -60L54 -130" stroke="#DFE104" stroke-width="8" fill="none"/>
    <path d="M54 -130h-46M54 -130v46" stroke="#DFE104" stroke-width="8" fill="none"/>
    <!-- coin -->
    <circle cx="-70" cy="-180" r="52" fill="none" stroke="#DFE104" stroke-width="6"/>
    <text x="-70" y="-160" fill="#DFE104" font-family="Arial, Helvetica, sans-serif" font-weight="bold" font-size="56" text-anchor="middle">G</text>
  </g>
  <text x="96" y="140" fill="#A1A1AA" font-family="Arial, Helvetica, sans-serif" font-size="30" letter-spacing="8">COMMUNITY REWARDS · FLUTTER APP</text>
  <rect x="96" y="170" width="120" height="6" fill="#DFE104"/>
  <text x="96" y="700" fill="#FAFAFA" font-family="Arial, Helvetica, sans-serif" font-weight="bold" font-size="110" letter-spacing="-2">GOLDEN</text>
  <text x="96" y="810" fill="#DFE104" font-family="Arial, Helvetica, sans-serif" font-weight="bold" font-size="110" letter-spacing="-2">VEST</text>
</svg>
