<svg viewBox="0 0 1600 900" xmlns="http://www.w3.org/2000/svg">
  <rect width="1600" height="900" fill="#09090B"/>
  <g stroke="#1C1C21" stroke-width="1">
    <path d="M0 180H1600M0 360H1600M0 540H1600M0 720H1600M320 0V900M640 0V900M960 0V900M1280 0V900"/>
  </g>
  <!-- linked blocks -->
  <g transform="translate(0,300)">
    <g fill="none" stroke-width="4">
      <rect x="880" y="0" width="170" height="170" stroke="#3F3F46"/>
      <rect x="1130" y="0" width="170" height="170" stroke="#DFE104"/>
      <rect x="1380" y="0" width="170" height="170" stroke="#3F3F46"/>
      <path d="M1050 85h80M1300 85h80" stroke="#DFE104"/>
      <circle cx="1090" cy="85" r="10" fill="#DFE104" stroke="none"/>
      <circle cx="1340" cy="85" r="10" fill="#DFE104" stroke="none"/>
    </g>
    <g fill="#71717A" font-family="Consolas, monospace" font-size="22">
      <text x="900" y="40">#001</text>
      <text x="900" y="76">nonce</text>
      <text x="900" y="112">prev: 0x00</text>
      <text x="1150" y="40" fill="#DFE104">#002</text>
      <text x="1150" y="76" fill="#DFE104">nonce</text>
      <text x="1150" y="112" fill="#DFE104">prev: 0xa4</text>
      <text x="1400" y="40">#003</text>
      <text x="1400" y="76">nonce</text>
      <text x="1400" y="112">prev: 0x7f</text>
    </g>
  </g>
  <text x="96" y="140" fill="#A1A1AA" font-family="Arial, Helvetica, sans-serif" font-size="30" letter-spacing="8">PROOF-OF-WORK BLOCKCHAIN IN PYTHON</text>
  <rect x="96" y="170" width="120" height="6" fill="#DFE104"/>
  <text x="96" y="760" fill="#FAFAFA" font-family="Arial, Helvetica, sans-serif" font-weight="bold" font-size="110" letter-spacing="-2">PY<tspan fill="#DFE104">CHAIN</tspan></text>
</svg>
